<svg xmlns="http://www.w3.org/2000/svg" xmlns:xlink="http://www.w3.org/1999/xlink" viewBox="0 0 50.6 73.87"><defs><style>.cls-1{fill:url(#Unbenannter_Verlauf_8);}.cls-2{fill:url(#Unbenannter_Verlauf_8-2);}.cls-3{fill:url(#Unbenannter_Verlauf_5);}.cls-4{fill:url(#Unbenannter_Verlauf_8-3);}.cls-5{fill:#353a8d;}</style><linearGradient id="Unbenannter_Verlauf_8" x1="492.86" y1="1598.22" x2="454.41" y2="1597.69" gradientTransform="translate(-443.89 -1560.97)" gradientUnits="userSpaceOnUse"><stop offset="0" stop-color="#f1f1f1"/><stop offset="0.04" stop-color="#d0d1e0"/><stop offset="0.09" stop-color="#acadcd"/><stop offset="0.14" stop-color="#8c8ebc"/><stop offset="0.21" stop-color="#7073ad"/><stop offset="0.28" stop-color="#5a5ea2"/><stop offset="0.36" stop-color="#494d99"/><stop offset="0.46" stop-color="#3e4193"/><stop offset="0.6" stop-color="#373b8f"/><stop offset="1" stop-color="#35398e"/></linearGradient><linearGradient id="Unbenannter_Verlauf_8-2" x1="467.95" y1="-1696.1" x2="452.95" y2="-1696.01" gradientTransform="translate(1722.48 465.68) rotate(-90)" xlink:href="#Unbenannter_Verlauf_8"/><linearGradient id="Unbenannter_Verlauf_5" x1="1281.76" y1="-2177.48" x2="1243.3" y2="-2177.48" gradientTransform="translate(-1253.08 2214.41)" gradientUnits="userSpaceOnUse"><stop offset="0" stop-color="#fff"/><stop offset="0.01" stop-color="#fafafc"/><stop offset="0.05" stop-color="#d1d2e5"/><stop offset="0.1" stop-color="#acaed1"/><stop offset="0.16" stop-color="#8c8ebe"/><stop offset="0.22" stop-color="#7073af"/><stop offset="0.29" stop-color="#5a5ea3"/><stop offset="0.37" stop-color="#494d99"/><stop offset="0.47" stop-color="#3e4193"/><stop offset="0.61" stop-color="#373b8f"/><stop offset="1" stop-color="#35398e"/></linearGradient><linearGradient id="Unbenannter_Verlauf_8-3" x1="-471.04" y1="1859.48" x2="-456.04" y2="1859.48" gradientTransform="translate(-1851.98 -396.19) rotate(-90)" xlink:href="#Unbenannter_Verlauf_8"/></defs><g id="Ebene_2" data-name="Ebene 2"><g id="Ebene_1-2" data-name="Ebene 1"><rect class="cls-1" x="7.21" y="29.44" width="38.46" height="15" rx="7.5" transform="translate(63.38 10.5) rotate(90)"/><circle class="cls-2" cx="26.44" cy="7.5" r="7.5"/><rect class="cls-3" x="-11.73" y="29.43" width="38.46" height="15" rx="7.5" transform="translate(-29.43 44.43) rotate(-90)"/><circle class="cls-4" cx="7.5" cy="66.37" r="7.5"/><path class="cls-5" d="M39.78,10.07V0h8.93V2.55H42.6v1.2h5.88V6.27H42.6V7.53h6.11v2.54Z"/><path class="cls-5" d="M37.88,25.35l4.34-10h4L50.6,25.35H47.36l-.76-1.86H41.83l-.78,1.86Zm5-4.4h2.67L45,19.54l-.66-1.69h-.2l-.64,1.69Z"/><path class="cls-5" d="M38.09,56.16,41.89,51v-.2l-3.8-5.17h3.69L44.21,49h.2L46.7,45.6h3.69l-3.78,5.23V51l3.78,5.12H46.7l-2.41-3.44h-.2l-2.31,3.44Z"/><path class="cls-5" d="M44.41,29.6c2.92,0,4.9,1.23,4.9,3.6v.45H46V33.2c0-.64-.56-1.06-1.64-1.06h-.22c-1.1,0-1.66.35-1.66.76v.2c0,.59.45.83,2.86,1.34,2.85.67,4.12,1.67,4.12,3.58v.17c0,1.93-1.62,3.41-5.06,3.41h-.28c-3.43,0-5.15-1.51-5.15-3.88v-.38h3.29v.4c0,1,.69,1.31,1.89,1.31h.23c1.13,0,1.77-.3,1.77-.82v-.12c0-.54-.64-.87-3.14-1.41s-3.85-1.55-3.85-3.41V33c0-2.19,1.86-3.41,4.94-3.41Z"/></g></g></svg>